<svg width="24" height="25" viewBox="0 0 24 25" fill="none" xmlns="http://www.w3.org/2000/svg">
<path d="M20.25 4.31445H3.75C3.35218 4.31445 2.97064 4.47249 2.68934 4.75379C2.40804 5.0351 2.25 5.41663 2.25 5.81445V19.3145C2.25 19.7123 2.40804 20.0938 2.68934 20.3751C2.97064 20.6564 3.35218 20.8145 3.75 20.8145H20.25C20.6478 20.8145 21.0294 20.6564 21.3107 20.3751C21.592 20.0938 21.75 19.7123 21.75 19.3145V5.81445C21.75 5.41663 21.592 5.0351 21.3107 4.75379C21.0294 4.47249 20.6478 4.31445 20.25 4.31445ZM12 13.3145C10.8069 13.3132 9.66303 12.8387 8.81939 11.9951C7.97575 11.1514 7.50124 10.0075 7.5 8.81445C7.5 8.61554 7.57902 8.42478 7.71967 8.28412C7.86032 8.14347 8.05109 8.06445 8.25 8.06445C8.44891 8.06445 8.63968 8.14347 8.78033 8.28412C8.92098 8.42478 9 8.61554 9 8.81445C9 9.6101 9.31607 10.3732 9.87868 10.9358C10.4413 11.4984 11.2044 11.8145 12 11.8145C12.7956 11.8145 13.5587 11.4984 14.1213 10.9358C14.6839 10.3732 15 9.6101 15 8.81445C15 8.61554 15.079 8.42478 15.2197 8.28412C15.3603 8.14347 15.5511 8.06445 15.75 8.06445C15.9489 8.06445 16.1397 8.14347 16.2803 8.28412C16.421 8.42478 16.5 8.61554 16.5 8.81445C16.4988 10.0075 16.0243 11.1514 15.1806 11.9951C14.337 12.8387 13.1931 13.3132 12 13.3145Z" fill="black"/>
</svg>
