<svg width="16" height="16" viewBox="0 0 16 16" fill="none" xmlns="http://www.w3.org/2000/svg">
<path d="M1.66699 1.83301C1.711 1.83309 1.75302 1.85076 1.78418 1.88184C1.81544 1.91309 1.83301 1.9558 1.83301 2V13.833H13.667C13.711 13.8331 13.753 13.8508 13.7842 13.8818C13.8154 13.9131 13.833 13.9558 13.833 14C13.8329 14.0441 13.8154 14.086 13.7842 14.1172C13.753 14.1484 13.7111 14.1659 13.667 14.166H1.66699C1.62279 14.166 1.58008 14.1484 1.54883 14.1172C1.51775 14.086 1.50009 14.044 1.5 14V2C1.5 1.9558 1.51757 1.91309 1.54883 1.88184C1.58008 1.85058 1.62279 1.83301 1.66699 1.83301ZM9.40625 8.57227L8.04004 7.20605H7.31934L7.17285 7.35254L5.31348 9.21289L5.14648 9.37988L5.16895 9.61523V9.61719L5.16699 9.6416V9.66602C5.16699 9.79847 5.11407 9.92579 5.02051 10.0195C4.92682 10.1132 4.79948 10.1659 4.66699 10.166C4.53438 10.166 4.40724 10.1133 4.31348 10.0195C4.21971 9.92576 4.16699 9.79862 4.16699 9.66602C4.16708 9.53352 4.21979 9.40619 4.31348 9.3125C4.40721 9.21894 4.53454 9.16602 4.66699 9.16602H4.87402L7.16699 6.87305V6.66602C7.16708 6.53352 7.21978 6.40619 7.31348 6.3125C7.40721 6.21894 7.53454 6.16602 7.66699 6.16602C7.79948 6.1661 7.92682 6.21881 8.02051 6.3125C8.1142 6.40619 8.16691 6.53353 8.16699 6.66602V6.87109L8.31055 7.0166L9.46387 8.19043L9.61035 8.33984H10.1338L10.2803 8.19336L12.6865 5.78613L12.8535 5.61914L12.8311 5.38477V5.38184L12.833 5.35742V5.33301C12.833 5.23417 12.8631 5.13786 12.918 5.05566C12.9728 4.97354 13.0504 4.90896 13.1416 4.87109C13.2329 4.83327 13.3337 4.82353 13.4307 4.84277C13.5276 4.86205 13.6166 4.90965 13.6865 4.97949C13.7564 5.04937 13.8039 5.13844 13.8232 5.23535C13.8425 5.33234 13.8328 5.43305 13.7949 5.52441C13.7571 5.61569 13.6935 5.69412 13.6113 5.74902C13.5291 5.80396 13.4319 5.83301 13.333 5.83301H13.125L12.9785 5.98047L10.5518 8.42773L10.4062 8.57422V8.83301C10.4062 8.96562 10.3535 9.09275 10.2598 9.18652C10.166 9.28016 10.0388 9.33301 9.90625 9.33301C9.77379 9.3329 9.64641 9.28019 9.55273 9.18652C9.4591 9.09277 9.40625 8.96552 9.40625 8.83301V8.57227Z" fill="#475467" stroke="#475467"/>
</svg>
