<svg width="18" height="18" viewBox="0 0 18 18" fill="none" xmlns="http://www.w3.org/2000/svg">
<path d="M17.1251 9.67673C16.9923 11.2205 16.4213 12.6942 15.4795 13.9244C14.5376 15.1547 13.2639 16.0904 11.8083 16.6214C10.3527 17.1524 8.77573 17.2566 7.26291 16.9218C5.75008 16.587 4.36435 15.8271 3.26874 14.7315C2.17312 13.6359 1.41321 12.2501 1.07841 10.7373C0.743601 9.22449 0.84783 7.64751 1.37883 6.19191C1.90983 4.73631 2.84551 3.46265 4.07579 2.52076C5.30607 1.57888 6.77976 1.00796 8.32349 0.87517C8.40557 0.868399 8.48818 0.87786 8.5666 0.903013C8.64502 0.928167 8.71771 0.96852 8.78054 1.02177C8.84336 1.07502 8.89508 1.14012 8.93275 1.21336C8.97041 1.28659 8.99328 1.36653 9.00006 1.44861C9.00683 1.53068 8.99737 1.61329 8.97221 1.69171C8.94706 1.77013 8.90671 1.84283 8.85346 1.90565C8.80021 1.96848 8.73511 2.0202 8.66187 2.05786C8.58863 2.09553 8.50869 2.1184 8.42662 2.12517C7.12005 2.23743 5.87272 2.72054 4.83139 3.51764C3.79007 4.31475 2.99807 5.39269 2.54859 6.62464C2.09911 7.85659 2.01085 9.1913 2.29418 10.4717C2.57752 11.7521 3.22067 12.925 4.14796 13.8523C5.07525 14.7796 6.2481 15.4227 7.52852 15.706C8.80893 15.9894 10.1436 15.9011 11.3756 15.4516C12.6075 15.0022 13.6855 14.2102 14.4826 13.1688C15.2797 12.1275 15.7628 10.8802 15.8751 9.57361C15.8887 9.40785 15.9677 9.25431 16.0946 9.14677C16.2215 9.03923 16.3859 8.9865 16.5516 9.00017C16.7174 9.01385 16.8709 9.09281 16.9785 9.21969C17.086 9.34657 17.1387 9.51097 17.1251 9.67673ZM8.37506 4.62517V9.00017C8.37506 9.16593 8.4409 9.3249 8.55811 9.44211C8.67532 9.55932 8.8343 9.62517 9.00006 9.62517H13.3751C13.5408 9.62517 13.6998 9.55932 13.817 9.44211C13.9342 9.3249 14.0001 9.16593 14.0001 9.00017C14.0001 8.83441 13.9342 8.67544 13.817 8.55823C13.6998 8.44102 13.5408 8.37517 13.3751 8.37517H9.62506V4.62517C9.62506 4.45941 9.55921 4.30044 9.442 4.18323C9.32479 4.06602 9.16582 4.00017 9.00006 4.00017C8.8343 4.00017 8.67532 4.06602 8.55811 4.18323C8.4409 4.30044 8.37506 4.45941 8.37506 4.62517ZM11.5001 2.75017C11.6855 2.75017 11.8667 2.69519 12.0209 2.59217C12.1751 2.48916 12.2952 2.34274 12.3662 2.17144C12.4371 2.00013 12.4557 1.81163 12.4195 1.62977C12.3834 1.44792 12.2941 1.28087 12.163 1.14976C12.0319 1.01865 11.8648 0.929358 11.683 0.893184C11.5011 0.85701 11.3126 0.875576 11.1413 0.946533C10.97 1.01749 10.8236 1.13765 10.7206 1.29182C10.6175 1.44599 10.5626 1.62725 10.5626 1.81267C10.5626 2.06131 10.6613 2.29977 10.8371 2.47558C11.013 2.6514 11.2514 2.75017 11.5001 2.75017ZM14.3126 4.62517C14.498 4.62517 14.6792 4.57019 14.8334 4.46717C14.9876 4.36416 15.1077 4.21774 15.1787 4.04644C15.2496 3.87513 15.2682 3.68663 15.232 3.50477C15.1959 3.32292 15.1066 3.15587 14.9755 3.02476C14.8444 2.89365 14.6773 2.80436 14.4955 2.76818C14.3136 2.73201 14.1251 2.75058 13.9538 2.82153C13.7825 2.89249 13.6361 3.01265 13.5331 3.16682C13.43 3.32099 13.3751 3.50225 13.3751 3.68767C13.3751 3.93631 13.4738 4.17477 13.6496 4.35058C13.8255 4.5264 14.0639 4.62517 14.3126 4.62517ZM16.1876 7.43767C16.373 7.43767 16.5542 7.38269 16.7084 7.27967C16.8626 7.17666 16.9827 7.03024 17.0537 6.85894C17.1246 6.68763 17.1432 6.49913 17.107 6.31727C17.0709 6.13542 16.9816 5.96837 16.8505 5.83726C16.7194 5.70615 16.5523 5.61686 16.3705 5.58068C16.1886 5.54451 16.0001 5.56308 15.8288 5.63403C15.6575 5.70499 15.5111 5.82515 15.4081 5.97932C15.305 6.13349 15.2501 6.31475 15.2501 6.50017C15.2501 6.74881 15.3488 6.98727 15.5246 7.16308C15.7005 7.3389 15.9389 7.43767 16.1876 7.43767Z" fill="#1E1E1E"/>
</svg>
