<svg width="19" height="14" viewBox="0 0 19 14" fill="none" xmlns="http://www.w3.org/2000/svg">
<path d="M0.50293 1.90527C4.2849 0.0589306 7.01432 0.930266 9.67578 1.77734C10.9404 2.18237 12.1793 2.57984 13.5225 2.66895C14.868 2.75815 16.3164 2.53781 18.0029 1.71289C18.0887 1.67096 18.184 1.65134 18.2793 1.65625C18.3744 1.66116 18.467 1.68988 18.5479 1.74023C18.6287 1.79142 18.6954 1.86323 18.7412 1.94727C18.7868 2.03113 18.8104 2.12525 18.8096 2.2207V11.5908C18.8095 11.6961 18.7794 11.7994 18.7236 11.8887C18.6679 11.9777 18.5885 12.0496 18.4941 12.0957C16.8478 12.8995 15.4005 13.1875 14.0752 13.1875C12.3551 13.1875 10.8323 12.7015 9.32812 12.2207C8.06138 11.8156 6.8214 11.4182 5.47754 11.3291C4.13152 11.2399 2.68363 11.4602 0.99707 12.2852C0.911308 12.327 0.816013 12.3458 0.720703 12.3408C0.625403 12.3358 0.533085 12.3064 0.452148 12.2559C0.37125 12.2053 0.304063 12.1352 0.257812 12.0518C0.211653 11.9684 0.187504 11.8746 0.1875 11.7793V2.41016C0.187617 2.3049 0.217628 2.20155 0.273438 2.1123C0.329173 2.02319 0.408514 1.95146 0.50293 1.90527ZM16.375 4.4375C16.1927 4.4375 16.0176 4.50983 15.8887 4.63867C15.7598 4.76754 15.6876 4.94276 15.6875 5.125V10.125C15.6875 10.3073 15.7598 10.4824 15.8887 10.6113C16.0176 10.7403 16.1927 10.8125 16.375 10.8125C16.5573 10.8125 16.7324 10.7403 16.8613 10.6113C16.9902 10.4824 17.0625 10.3073 17.0625 10.125V5.125C17.0624 4.94276 16.9902 4.76754 16.8613 4.63867C16.7324 4.50983 16.5573 4.4375 16.375 4.4375ZM2.625 3.1875C2.44273 3.1875 2.26759 3.25983 2.13867 3.38867C2.00981 3.51754 1.93757 3.69276 1.9375 3.875V8.875C1.9375 9.05727 2.00983 9.23241 2.13867 9.36133C2.2676 9.49026 2.44266 9.5625 2.625 9.5625C2.80734 9.5625 2.9824 9.49026 3.11133 9.36133C3.24017 9.23241 3.3125 9.05727 3.3125 8.875V3.875C3.31243 3.69276 3.24019 3.51754 3.11133 3.38867C2.98241 3.25983 2.80727 3.1875 2.625 3.1875ZM10.4805 4.63281C10.0123 4.43891 9.49703 4.38844 9 4.4873C8.50304 4.58618 8.0468 4.83021 7.68848 5.18848C7.33017 5.54678 7.08524 6.00303 6.98633 6.5C6.88747 6.99698 6.93896 7.51231 7.13281 7.98047C7.32674 8.44865 7.65484 8.84929 8.07617 9.13086C8.49757 9.41243 8.99319 9.5625 9.5 9.5625C10.1795 9.5625 10.831 9.29284 11.3115 8.8125C11.7921 8.33194 12.0625 7.67962 12.0625 7C12.0624 6.49328 11.9124 5.99749 11.6309 5.57617C11.3493 5.15488 10.9486 4.82673 10.4805 4.63281Z" fill="white" stroke="white" stroke-width="0.125"/>
</svg>
