<svg width="36" height="36" viewBox="0 0 36 36" fill="none" xmlns="http://www.w3.org/2000/svg">
<rect x="2" y="2" width="32" height="32" rx="16" fill="#F9FAFB"/>
<rect x="2" y="2" width="32" height="32" rx="16" stroke="#F9FAFB" stroke-width="4"/>
<path d="M18.667 11.334H14.0003C13.6467 11.334 13.3076 11.4745 13.0575 11.7245C12.8075 11.9746 12.667 12.3137 12.667 12.6673V23.334C12.667 23.6876 12.8075 24.0267 13.0575 24.2768C13.3076 24.5268 13.6467 24.6673 14.0003 24.6673H22.0003C22.3539 24.6673 22.6931 24.5268 22.9431 24.2768C23.1932 24.0267 23.3337 23.6876 23.3337 23.334V16.0007M18.667 11.334L23.3337 16.0007M18.667 11.334V16.0007H23.3337" stroke="#164DA0" stroke-width="1.33333" stroke-linecap="round" stroke-linejoin="round"/>
</svg>
