<svg width="24" height="24" viewBox="0 0 24 24" fill="none" xmlns="http://www.w3.org/2000/svg">
<path d="M23.5861 19.8618H0.413812C0.185297 19.8618 0 19.6765 0 19.448V4.55151C0 4.32299 0.185297 4.1377 0.413812 4.1377H23.5862C23.8147 4.1377 24 4.32299 24 4.55151V19.448C24 19.6766 23.8147 19.8618 23.5861 19.8618Z" fill="#FF4B55"/>
<path d="M16.3765 13.2337C16.3765 13.2337 15.5522 13.0963 14.9415 12.5899C14.7614 12.4405 14.5 12.3264 14.2454 12.242C14.4501 12.2329 14.6672 12.2386 14.8724 12.2801C15.7223 12.452 16.5464 12.0394 16.5464 12.0394C16.5464 12.0394 15.7149 12.1233 14.9927 11.795C14.7974 11.7063 14.5441 11.6645 14.2968 11.6468C14.4747 11.5957 14.6634 11.5557 14.8497 11.5453C15.7155 11.4973 16.409 10.8904 16.409 10.8904C16.409 10.8904 15.6255 11.1812 14.8439 11.0456C14.6163 11.006 14.3369 11.0356 14.0769 11.0879C14.2479 10.9805 14.4363 10.88 14.6317 10.8154C15.4549 10.543 15.9659 9.776 15.9659 9.776C15.9659 9.776 15.2855 10.2613 14.4956 10.3345C14.261 10.3562 13.9939 10.4615 13.7528 10.5828C13.8919 10.4303 14.0506 10.2793 14.2264 10.1627C14.9489 9.68324 15.2399 8.80879 15.2399 8.80879C15.2399 8.80879 14.7113 9.45608 13.9685 9.73461C13.766 9.81055 13.5562 9.96261 13.3677 10.1265C13.4578 9.9627 13.5637 9.79888 13.6895 9.65816C14.2674 9.01171 14.328 8.09212 14.328 8.09212C14.328 8.09212 13.98 8.85196 13.3318 9.30913C13.1428 9.44244 12.9661 9.66125 12.8192 9.88241C12.8641 9.68525 12.9262 9.48078 13.0186 9.29652C13.4077 8.52154 13.226 7.61802 13.226 7.61802C13.226 7.61802 13.0886 8.44237 12.5822 9.053C12.4328 9.23314 12.3187 9.49457 12.2343 9.74928C12.2252 9.54458 12.2309 9.32746 12.2724 9.12229C12.4442 8.27235 12.0317 7.44824 12.0317 7.44824C12.0317 7.44824 12.1156 8.27976 11.7873 9.00191C11.6985 9.19724 11.6567 9.45055 11.6391 9.69782C11.5879 9.51997 11.5479 9.33125 11.5376 9.14493C11.4896 8.2791 10.8826 7.58563 10.8826 7.58563C10.8826 7.58563 11.1734 8.3691 11.0378 9.15069C10.9983 9.37832 11.0279 9.65774 11.0801 9.9178C10.9727 9.74675 10.8723 9.55841 10.8076 9.36294C10.5353 8.53972 9.76824 8.02879 9.76824 8.02879C9.76824 8.02879 10.2535 8.70918 10.3267 9.49907C10.3484 9.73363 10.4537 10.0009 10.575 10.2419C10.4226 10.1028 10.2716 9.94405 10.155 9.76822C9.67547 9.04574 8.80102 8.75474 8.80102 8.75474C8.80102 8.75474 9.44832 9.28335 9.72685 10.0262C9.80279 10.2287 9.95485 10.4386 10.1187 10.627C9.95494 10.5369 9.79111 10.431 9.6504 10.3052C9.00394 9.7273 8.08435 9.66669 8.08435 9.66669C8.08435 9.66669 8.84419 10.0146 9.30136 10.663C9.43458 10.8519 9.65344 11.0286 9.8745 11.1755C9.67739 11.1306 9.47293 11.0686 9.28871 10.9761C8.51373 10.5871 7.61021 10.7687 7.61021 10.7687C7.61021 10.7687 8.43455 10.9062 9.04519 11.4125C9.22533 11.5619 9.48675 11.6761 9.74147 11.7605C9.53677 11.7695 9.31965 11.7638 9.11447 11.7223C8.26454 11.5505 7.44043 11.963 7.44043 11.963C7.44043 11.963 8.27194 11.8791 8.9941 12.2074C9.18943 12.2962 9.44274 12.338 9.69 12.3557C9.51216 12.4068 9.32344 12.4468 9.13711 12.4572C8.27129 12.5052 7.57782 13.1121 7.57782 13.1121C7.57782 13.1121 8.36129 12.8213 9.14288 12.9569C9.3705 12.9964 9.64993 12.9669 9.90999 12.9146C9.73894 13.022 9.5506 13.1224 9.35513 13.1871C8.53191 13.4595 8.02098 14.2265 8.02098 14.2265C8.02098 14.2265 8.70137 13.7412 9.49125 13.668C9.72582 13.6463 9.99305 13.541 10.2341 13.4197C10.095 13.5722 9.93624 13.7231 9.76041 13.8398C9.03793 14.3193 8.74688 15.1937 8.74688 15.1937C8.74688 15.1937 9.27549 14.5464 10.0183 14.2679C10.2208 14.1919 10.4307 14.0399 10.6191 13.876C10.5291 14.0397 10.4231 14.2036 10.2974 14.3443C9.71949 14.9907 9.65888 15.9103 9.65888 15.9103C9.65888 15.9103 10.0068 15.1505 10.6552 14.6933C10.8442 14.56 11.0208 14.3412 11.1677 14.1201C11.1228 14.3173 11.0608 14.5217 10.9683 14.706C10.5793 15.481 10.7609 16.3845 10.7609 16.3845C10.7609 16.3845 10.8983 15.5601 11.4047 14.9495C11.5541 14.7694 11.6683 14.5079 11.7526 14.2532C11.7617 14.458 11.756 14.6751 11.7145 14.8803C11.5427 15.7302 11.9552 16.5543 11.9552 16.5543C11.9552 16.5543 11.8713 15.7228 12.1996 15.0006C12.2884 14.8053 12.3302 14.5519 12.3479 14.3047C12.399 14.4826 12.439 14.6713 12.4493 14.8576C12.4973 15.7234 13.1043 16.4169 13.1043 16.4169C13.1043 16.4169 12.8135 15.6334 12.9491 14.8519C12.9886 14.6242 12.9591 14.3448 12.9068 14.0848C13.0142 14.2558 13.1146 14.4441 13.1793 14.6396C13.4517 15.4628 14.2187 15.9738 14.2187 15.9738C14.2187 15.9738 13.7334 15.2934 13.6602 14.5034C13.6385 14.2689 13.5332 14.0016 13.4119 13.7606C13.5644 13.8997 13.7153 14.0584 13.832 14.2343C14.3114 14.9568 15.1859 15.2478 15.1859 15.2478C15.1859 15.2478 14.5386 14.7192 14.2601 13.9764C14.1841 13.7739 14.0321 13.564 13.8682 13.3756C14.0319 13.4656 14.1958 13.5716 14.3365 13.6973C14.9829 14.2752 15.9025 14.3358 15.9025 14.3358C15.9025 14.3358 15.1427 13.9879 14.6855 13.3395C14.5522 13.1505 14.3334 12.9739 14.1122 12.827C14.3094 12.8719 14.5138 12.9339 14.6981 13.0264C15.473 13.4154 16.3765 13.2337 16.3765 13.2337ZM11.9987 14.1008C10.8384 14.1008 9.8978 13.1602 9.8978 11.9999C9.8978 10.8396 10.8384 9.899 11.9987 9.899C13.159 9.899 14.0996 10.8396 14.0996 11.9999C14.0996 13.1602 13.159 14.1008 11.9987 14.1008Z" fill="#FFE15A"/>
<path d="M11.3331 11.1501C11.3779 11.1152 11.4225 11.0801 11.4678 11.0488C11.1701 10.9135 10.9022 10.8484 10.7142 10.8193C10.6843 10.8519 10.6573 10.8868 10.6299 10.9215C10.8145 10.9573 11.0625 11.0258 11.3331 11.1501Z" fill="#FFE15A"/>
<path d="M10.8047 10.7267C11.0067 10.7496 11.2991 10.8097 11.6235 10.9492C11.6779 10.9168 11.732 10.8881 11.7862 10.8604C11.4359 10.7166 11.1196 10.663 10.902 10.6465C10.8693 10.673 10.8353 10.698 10.8047 10.7267Z" fill="#FFE15A"/>
<path d="M11.8558 11.7003C11.8139 11.6607 11.7715 11.6233 11.7287 11.5879C11.3354 11.9622 10.9913 12.5082 10.8359 13.3003C10.8924 13.3509 10.9485 13.4019 11.0112 13.4449C11.1253 12.6393 11.4598 12.0832 11.8558 11.7003Z" fill="#FFE15A"/>
<path d="M11.7034 11.3513C11.748 11.3154 11.7925 11.2794 11.8377 11.2474C11.7827 11.2123 11.7278 11.1814 11.6732 11.1514C11.6263 11.1834 11.5795 11.2145 11.5332 11.2505C11.5898 11.2817 11.6465 11.3149 11.7034 11.3513Z" fill="#FFE15A"/>
<path d="M12.791 11.2507C13.1282 11.5469 13.4365 11.964 13.6558 12.5423C13.7121 12.3706 13.7502 12.1906 13.7502 12.0001C13.7502 11.6384 13.6402 11.3024 13.4523 11.0234C13.2784 11.058 13.0449 11.1256 12.791 11.2507Z" fill="#FFE15A"/>
<path d="M11.8691 11.4651C11.9131 11.4977 11.9561 11.5346 11.9993 11.5708C12.0425 11.5345 12.0855 11.4977 12.1295 11.4651C12.0863 11.4291 12.0431 11.3937 11.9993 11.3613C11.9555 11.3937 11.9124 11.4291 11.8691 11.4651Z" fill="#FFE15A"/>
<path d="M11.9993 10.958C11.9443 10.9859 11.8893 11.0174 11.834 11.0501C11.889 11.079 11.944 11.11 11.9993 11.144C12.0547 11.1101 12.1097 11.079 12.1646 11.0501C12.1093 11.0173 12.0543 10.9859 11.9993 10.958Z" fill="#FFE15A"/>
<path d="M10.6458 13.098C10.831 12.3416 11.1802 11.8235 11.5709 11.467C11.5163 11.4285 11.4618 11.3931 11.4073 11.3604C11.0313 11.691 10.6911 12.1687 10.4814 12.857C10.5298 12.9424 10.5844 13.0223 10.6458 13.098Z" fill="#FFE15A"/>
<path d="M11.2072 11.2508C10.9533 11.1256 10.7198 11.0581 10.5459 11.0234C10.358 11.3024 10.248 11.6384 10.248 12.0001C10.248 12.1906 10.2861 12.3706 10.3424 12.5423C10.5618 11.964 10.87 11.547 11.2072 11.2508Z" fill="#FFE15A"/>
<path d="M11.9985 10.761C12.371 10.6071 12.7146 10.5524 12.9589 10.538C12.683 10.3563 12.3536 10.249 11.9985 10.249C11.6434 10.249 11.314 10.3564 11.0381 10.538C11.2824 10.5524 11.626 10.6071 11.9985 10.761Z" fill="#FFE15A"/>
<path d="M11.9994 11.8477C11.6503 12.2346 11.3621 12.7902 11.2686 13.5858C11.4916 13.6889 11.7376 13.7503 11.9994 13.7503C12.2613 13.7503 12.5073 13.6889 12.7303 13.5858C12.6368 12.7902 12.3486 12.2346 11.9994 11.8477Z" fill="#FFE15A"/>
<path d="M12.5913 11.3604C12.5368 11.3932 12.4824 11.4285 12.4277 11.467C12.8184 11.8234 13.1676 12.3416 13.3528 13.098C13.4142 13.0223 13.4688 12.9424 13.5172 12.857C13.3076 12.1688 12.9673 11.691 12.5913 11.3604Z" fill="#FFE15A"/>
<path d="M13.1615 13.3003C13.0062 12.5082 12.6621 11.9623 12.2687 11.5879C12.2259 11.6233 12.1835 11.6607 12.1416 11.7003C12.5376 12.0832 12.8721 12.6393 12.9862 13.4449C13.049 13.402 13.105 13.3509 13.1615 13.3003Z" fill="#FFE15A"/>
<path d="M12.2119 10.8605C12.2661 10.8882 12.3202 10.9169 12.3746 10.9493C12.699 10.8097 12.9914 10.7496 13.1934 10.7268C13.1627 10.698 13.1288 10.6731 13.0961 10.6465C12.8784 10.6631 12.5622 10.7167 12.2119 10.8605Z" fill="#FFE15A"/>
<path d="M12.2945 11.3513C12.3514 11.3149 12.408 11.2817 12.4647 11.2505C12.4184 11.2145 12.3715 11.1834 12.3247 11.1514C12.27 11.1815 12.2152 11.2123 12.1602 11.2474C12.2053 11.2794 12.2499 11.3155 12.2945 11.3513Z" fill="#FFE15A"/>
<path d="M12.665 11.1501C12.9356 11.0257 13.1837 10.9573 13.3682 10.9215C13.3407 10.8868 13.3138 10.8518 13.2838 10.8193C13.0959 10.8484 12.8279 10.9134 12.5303 11.0488C12.5756 11.08 12.6203 11.1151 12.665 11.1501Z" fill="#FFE15A"/>
</svg>
