<svg width="20" height="18" viewBox="0 0 20 18" fill="none" xmlns="http://www.w3.org/2000/svg">
<path d="M17.0167 2.81671C16.5987 2.39719 16.1019 2.06433 15.5549 1.8372C15.0079 1.61008 14.4215 1.49316 13.8292 1.49316C13.237 1.49316 12.6505 1.61008 12.1036 1.8372C11.5566 2.06433 11.0598 2.39719 10.6417 2.81671L10.0001 3.46671L9.35841 2.81671C8.94034 2.39719 8.44357 2.06433 7.89659 1.8372C7.34961 1.61008 6.76317 1.49316 6.17091 1.49316C5.57864 1.49316 4.9922 1.61008 4.44522 1.8372C3.89824 2.06433 3.40147 2.39719 2.98341 2.81671C1.21674 4.58338 1.10841 7.56671 3.33341 9.83338L10.0001 16.5L16.6667 9.83338C18.8917 7.56671 18.7834 4.58338 17.0167 2.81671Z" stroke="#475467" stroke-width="2" stroke-linecap="round" stroke-linejoin="round"/>
</svg>
