<svg width="25" height="24" viewBox="0 0 25 24" fill="none" xmlns="http://www.w3.org/2000/svg">
<path fill-rule="evenodd" clip-rule="evenodd" d="M12.1413 4.90514C12.5183 4.57524 13.0813 4.57524 13.4583 4.90514L19.4583 10.1551C19.6753 10.345 19.7998 10.6194 19.7998 10.9077V19.0002C19.7998 19.5525 19.3521 20.0002 18.7998 20.0002H6.7998C6.24752 20.0002 5.7998 19.5525 5.7998 19.0002V10.9077C5.7998 10.6194 5.92429 10.345 6.1413 10.1551L12.1413 4.90514ZM14.7753 3.39999C13.6442 2.41029 11.9554 2.41029 10.8243 3.39998L4.82429 8.64999C4.17325 9.21965 3.7998 10.0426 3.7998 10.9077V19.0002C3.7998 20.657 5.14295 22.0002 6.7998 22.0002H18.7998C20.4567 22.0002 21.7998 20.657 21.7998 19.0002V10.9077C21.7998 10.0426 21.4264 9.21965 20.7753 8.64999L14.7753 3.39999ZM8.7998 16.0001C8.24752 16.0001 7.7998 16.4478 7.7998 17.0001C7.7998 17.5524 8.24752 18.0001 8.7998 18.0001H16.7998C17.3521 18.0001 17.7998 17.5524 17.7998 17.0001C17.7998 16.4478 17.3521 16.0001 16.7998 16.0001H8.7998Z" fill="#D0D5DD"/>
</svg>
