<svg width="16" height="16" viewBox="0 0 16 16" fill="none" xmlns="http://www.w3.org/2000/svg">
<path fill-rule="evenodd" clip-rule="evenodd" d="M9.34101 0C9.51643 0.0021052 9.68395 0.0732715 9.80725 0.198068C9.93055 0.322865 9.99969 0.491233 9.99967 0.666667V15.3333C9.99969 15.5087 9.93064 15.6769 9.80749 15.8017C9.68433 15.9265 9.51698 15.9977 9.34167 16H1.99967C1.82286 16 1.65329 15.9298 1.52827 15.8047C1.40325 15.6797 1.33301 15.5101 1.33301 15.3333V4.26733C1.33293 3.8567 1.45926 3.45601 1.69482 3.11966C1.93038 2.78332 2.26376 2.52763 2.64967 2.38733L9.10501 0.04C9.17567 0.0146666 9.24834 0.00133333 9.32101 0H9.33101H9.34101ZM11.333 5.46533L13.4543 6.374C13.8141 6.52831 14.1207 6.78475 14.3361 7.11157C14.5515 7.43839 14.6663 7.82123 14.6663 8.21267V15.3333C14.6663 15.5101 14.5961 15.6797 14.4711 15.8047C14.3461 15.9298 14.1765 16 13.9997 16H11.219C11.293 15.7913 11.333 15.5673 11.333 15.3333V5.46533ZM6.67501 11.3333C6.76256 11.3328 6.84913 11.315 6.9298 11.2809C7.01047 11.2469 7.08364 11.1973 7.14514 11.135C7.20665 11.0727 7.25527 10.9989 7.28825 10.9178C7.32123 10.8367 7.33791 10.7499 7.33734 10.6623C7.33677 10.5748 7.31896 10.4882 7.28494 10.4075C7.25091 10.3269 7.20132 10.2537 7.13901 10.1922C7.07671 10.1307 7.00289 10.0821 6.92179 10.0491C6.84069 10.0161 6.75389 9.99943 6.66634 10H4.66634C4.48953 10 4.31996 10.0702 4.19494 10.1953C4.06991 10.3203 3.99967 10.4899 3.99967 10.6667C3.99967 10.8435 4.06991 11.013 4.19494 11.1381C4.31996 11.2631 4.48953 11.3333 4.66634 11.3333H6.66634H6.67501ZM6.67501 8.66667C6.85182 8.66552 7.02093 8.59418 7.14514 8.46834C7.26935 8.3425 7.33849 8.17248 7.33734 7.99567C7.33619 7.81886 7.26485 7.64974 7.13901 7.52553C7.01318 7.40132 6.84315 7.33218 6.66634 7.33333H4.66634C4.48953 7.33333 4.31996 7.40357 4.19494 7.5286C4.06991 7.65362 3.99967 7.82319 3.99967 8C3.99967 8.17681 4.06991 8.34638 4.19494 8.47141C4.31996 8.59643 4.48953 8.66667 4.66634 8.66667H6.66634H6.67501ZM6.67501 6C6.85182 5.99885 7.02093 5.92751 7.14514 5.80167C7.26935 5.67584 7.33849 5.50581 7.33734 5.329C7.33619 5.15219 7.26485 4.98308 7.13901 4.85886C7.01318 4.73465 6.84315 4.66552 6.66634 4.66667H4.66634C4.48953 4.66667 4.31996 4.7369 4.19494 4.86193C4.06991 4.98695 3.99967 5.15652 3.99967 5.33333C3.99967 5.51014 4.06991 5.67971 4.19494 5.80474C4.31996 5.92976 4.48953 6 4.66634 6H6.66634H6.67501Z" fill="#A2A146"/>
</svg>
