<svg width="16" height="10" viewBox="0 0 16 10" fill="none" xmlns="http://www.w3.org/2000/svg">
<path d="M10.2793 9.22644C10.3285 9.30188 10.3564 9.38921 10.3601 9.4792C10.3638 9.56919 10.3431 9.6585 10.3002 9.7377C10.2573 9.81689 10.1938 9.88303 10.1164 9.92912C10.039 9.97522 9.95066 9.99956 9.86059 9.99957H0.639343C0.549278 9.99956 0.460888 9.97522 0.383512 9.92912C0.306136 9.88303 0.242647 9.81689 0.199752 9.7377C0.156858 9.6585 0.136151 9.56919 0.139819 9.4792C0.143488 9.38921 0.171395 9.30188 0.220593 9.22644C0.924409 8.14309 1.95965 7.31634 3.17184 6.86957C2.50172 6.42344 1.99295 5.77349 1.72078 5.01585C1.44861 4.25821 1.42748 3.43309 1.66053 2.66251C1.89357 1.89193 2.36841 1.2168 3.01483 0.736961C3.66124 0.257122 4.44492 -0.00195312 5.24997 -0.00195312C6.05502 -0.00195312 6.83869 0.257122 7.48511 0.736961C8.13153 1.2168 8.60637 1.89193 8.83941 2.66251C9.07245 3.43309 9.05133 4.25821 8.77916 5.01585C8.50699 5.77349 7.99822 6.42344 7.32809 6.86957C8.54029 7.31634 9.57553 8.14309 10.2793 9.22644ZM15.7737 9.21707C15.0697 8.13827 14.0368 7.31509 12.8281 6.86957C13.6192 6.33667 14.1775 5.52232 14.3894 4.59228C14.6012 3.66225 14.4507 2.68643 13.9685 1.86346C13.4862 1.04049 12.7085 0.432217 11.7936 0.162462C10.8786 -0.107294 9.89531 -0.0182591 9.04372 0.411443C9.01116 0.428257 8.98269 0.452024 8.96033 0.481062C8.93797 0.510099 8.92227 0.543698 8.91434 0.579477C8.90641 0.615257 8.90644 0.652342 8.91443 0.688108C8.92243 0.723874 8.93818 0.757445 8.96059 0.786443C9.59382 1.57632 9.95749 2.54822 9.99831 3.55976C10.0391 4.57131 9.75498 5.56935 9.18747 6.40769C9.15079 6.46248 9.13723 6.52954 9.14976 6.59427C9.16228 6.659 9.19987 6.71617 9.25434 6.75332C9.99428 7.26974 10.6277 7.92397 11.12 8.68019C11.3185 8.98423 11.3996 9.35013 11.3481 9.70957C11.3423 9.74532 11.3443 9.78191 11.3541 9.8168C11.3638 9.85169 11.381 9.88404 11.4045 9.91162C11.428 9.9392 11.4572 9.96135 11.4901 9.97654C11.523 9.99172 11.5587 9.99958 11.595 9.99957H15.3637C15.4738 9.9996 15.5808 9.96329 15.6682 9.89628C15.7556 9.82927 15.8184 9.73529 15.8468 9.62894C15.8642 9.559 15.8667 9.48619 15.8541 9.41523C15.8415 9.34427 15.8141 9.27675 15.7737 9.21707Z" fill="#475467"/>
</svg>
