<svg width="10" height="10" viewBox="0 0 10 10" fill="none" xmlns="http://www.w3.org/2000/svg">
<path d="M9.37652 6.2341C9.37652 6.2341 8.55218 6.09666 7.94154 5.59027C7.7614 5.44088 7.49998 5.32674 7.24536 5.24236C7.45006 5.23327 7.66718 5.23899 7.87235 5.28047C8.72229 5.45232 9.5464 5.03977 9.5464 5.03977C9.5464 5.03977 8.71488 5.12368 7.99273 4.79541C7.7974 4.70663 7.54409 4.66482 7.29682 4.64719C7.47467 4.59605 7.66339 4.55602 7.84971 4.54571C8.71554 4.49771 9.40901 3.89073 9.40901 3.89073C9.40901 3.89073 8.62554 4.18154 7.84395 4.04593C7.61632 4.00641 7.3369 4.03599 7.07689 4.08826C7.24793 3.98082 7.43628 3.88041 7.6317 3.81577C8.45492 3.54338 8.96585 2.77637 8.96585 2.77637C8.96585 2.77637 8.28546 3.26166 7.49557 3.33484C7.26101 3.35654 6.99387 3.46187 6.75279 3.58313C6.89187 3.43065 7.05064 3.27971 7.22642 3.16309C7.9489 2.6836 8.23995 1.80915 8.23995 1.80915C8.23995 1.80915 7.71134 2.45645 6.96851 2.73498C6.76601 2.81092 6.55615 2.96298 6.36767 3.12685C6.45776 2.96307 6.56365 2.79924 6.68947 2.65853C7.26739 2.01207 7.328 1.09248 7.328 1.09248C7.328 1.09248 6.98004 1.85232 6.33176 2.30949C6.14276 2.44281 5.96614 2.66162 5.81923 2.88277C5.86414 2.68562 5.92616 2.48115 6.01864 2.29689C6.40765 1.5219 6.22601 0.618389 6.22601 0.618389C6.22601 0.618389 6.08858 1.44273 5.58219 2.05337C5.4328 2.23351 5.31866 2.49493 5.23428 2.74965C5.22519 2.54495 5.23091 2.32782 5.27239 2.12265C5.44423 1.27272 5.03169 0.448608 5.03169 0.448608C5.03169 0.448608 5.11559 1.28012 4.78728 2.00228C4.6985 2.1976 4.65669 2.45092 4.63906 2.69818C4.58792 2.52034 4.54789 2.33162 4.53758 2.14529C4.48958 1.27947 3.8826 0.585999 3.8826 0.585999C3.8826 0.585999 4.17341 1.36947 4.0378 2.15106C3.99828 2.37868 4.02786 2.6581 4.08013 2.91817C3.97269 2.74712 3.87228 2.55878 3.80764 2.36331C3.53525 1.54009 2.76824 1.02915 2.76824 1.02915C2.76824 1.02915 3.25353 1.70954 3.32671 2.49943C3.34841 2.73399 3.45374 3.00123 3.57505 3.24226C3.42257 3.10318 3.27163 2.94442 3.15496 2.76859C2.67547 2.0461 1.80102 1.75511 1.80102 1.75511C1.80102 1.75511 2.44832 2.28371 2.72685 3.02654C2.80279 3.22904 2.95485 3.43895 3.11872 3.62738C2.95494 3.53729 2.79111 3.4314 2.6504 3.30559C2.00394 2.72767 1.08435 2.66706 1.08435 2.66706C1.08435 2.66706 1.84419 3.01501 2.30136 3.66334C2.43458 3.85229 2.65344 4.02896 2.8745 4.17587C2.67739 4.13096 2.47293 4.06894 2.28871 3.97646C1.51373 3.58744 0.610211 3.76909 0.610211 3.76909C0.610211 3.76909 1.43455 3.90652 2.04519 4.41291C2.22533 4.5623 2.48675 4.67644 2.74147 4.76082C2.53677 4.76991 2.31965 4.76419 2.11447 4.72271C1.26454 4.55087 0.44043 4.96341 0.44043 4.96341C0.44043 4.96341 1.27194 4.8795 1.9941 5.20782C2.18943 5.2966 2.44274 5.33841 2.69 5.35604C2.51216 5.40718 2.32344 5.44721 2.13711 5.45752C1.27129 5.50552 0.577821 6.1125 0.577821 6.1125C0.577821 6.1125 1.36129 5.82169 2.14288 5.9573C2.3705 5.99682 2.64993 5.96724 2.90999 5.91497C2.73894 6.02241 2.5506 6.12282 2.35513 6.18746C1.53191 6.45985 1.02098 7.22686 1.02098 7.22686C1.02098 7.22686 1.70137 6.74156 2.49125 6.66839C2.72582 6.64669 2.99305 6.54136 3.23408 6.42005C3.095 6.57253 2.93624 6.72347 2.76041 6.84014C2.03793 7.31962 1.74688 8.19408 1.74688 8.19408C1.74688 8.19408 2.27549 7.54678 3.01832 7.26825C3.22077 7.19231 3.43068 7.04025 3.61911 6.87638C3.52907 7.04011 3.42313 7.20398 3.29741 7.34466C2.71949 7.99111 2.65888 8.9107 2.65888 8.9107C2.65888 8.9107 3.00683 8.15086 3.65516 7.69369C3.84416 7.56037 4.02078 7.34156 4.16769 7.1205C4.12278 7.31766 4.06077 7.52208 3.96828 7.70634C3.57927 8.48132 3.76091 9.38484 3.76091 9.38484C3.76091 9.38484 3.89835 8.5605 4.40474 7.94986C4.55413 7.76972 4.66827 7.5083 4.75264 7.25358C4.76173 7.45837 4.75602 7.67545 4.71453 7.88062C4.54269 8.73056 4.95523 9.55462 4.95523 9.55462C4.95523 9.55462 4.87133 8.72315 5.19964 8.001C5.28842 7.80567 5.33023 7.55231 5.34786 7.30509C5.399 7.48294 5.43903 7.67166 5.44934 7.85798C5.49734 8.72381 6.10433 9.41728 6.10433 9.41728C6.10433 9.41728 5.81351 8.63376 5.94912 7.85222C5.98864 7.62459 5.95906 7.34517 5.9068 7.08516C6.01423 7.2562 6.11464 7.4445 6.17928 7.63997C6.45167 8.46318 7.21868 8.97412 7.21868 8.97412C7.21868 8.97412 6.73339 8.29373 6.66022 7.5038C6.63851 7.26923 6.53319 7.002 6.41187 6.76097C6.56436 6.90005 6.71529 7.05881 6.83197 7.23464C7.31145 7.95712 8.1859 8.24817 8.1859 8.24817C8.1859 8.24817 7.5386 7.71956 7.26007 6.97673C7.18414 6.77428 7.03207 6.56438 6.8682 6.37594C7.03193 6.46599 7.19576 6.57192 7.33648 6.69764C7.98293 7.27556 8.90252 7.33617 8.90252 7.33617C8.90252 7.33617 8.14268 6.98822 7.68551 6.33989C7.5522 6.15089 7.33339 5.97422 7.11223 5.82736C7.30939 5.87227 7.51381 5.93428 7.69807 6.02677C8.47301 6.41574 9.37652 6.2341 9.37652 6.2341ZM4.99869 7.10114C3.83839 7.10114 2.8978 6.16055 2.8978 5.00026C2.8978 3.83996 3.83839 2.89937 4.99869 2.89937C6.15898 2.89937 7.09957 3.83996 7.09957 5.00026C7.09957 6.16055 6.15898 7.10114 4.99869 7.10114Z" fill="#F8D742"/>
<path d="M4.3331 4.15001C4.37791 4.11504 4.42249 4.07993 4.46777 4.04871C4.17012 3.91334 3.90218 3.84832 3.71421 3.81921C3.6843 3.85175 3.6573 3.88667 3.62988 3.92135C3.81448 3.95721 4.06249 4.02565 4.3331 4.15001Z" fill="#F8D742"/>
<path d="M3.80469 3.72661C4.00667 3.74944 4.29908 3.80958 4.6235 3.94913C4.67788 3.91669 4.73197 3.888 4.78616 3.8603C4.43586 3.71649 4.11964 3.66291 3.902 3.64636C3.86928 3.67289 3.83534 3.69783 3.80469 3.72661Z" fill="#F8D742"/>
<path d="M4.85584 4.7003C4.81394 4.66073 4.77151 4.62328 4.72872 4.58789C4.33539 4.96223 3.99128 5.50819 3.83594 6.30032C3.89242 6.35085 3.94848 6.40195 4.01116 6.44493C4.1253 5.63929 4.45984 5.08322 4.85584 4.7003Z" fill="#F8D742"/>
<path d="M4.70341 4.35239C4.74798 4.31653 4.79252 4.28053 4.8377 4.24847C4.78267 4.21336 4.72783 4.18251 4.67317 4.15247C4.62634 4.18453 4.57947 4.21556 4.5332 4.25161C4.58983 4.28278 4.64645 4.31597 4.70341 4.35239Z" fill="#F8D742"/>
<path d="M5.79102 4.25086C6.12823 4.54706 6.43648 4.96415 6.65581 5.5424C6.71211 5.3707 6.75017 5.1907 6.75017 5.0002C6.75017 4.63851 6.64025 4.30256 6.45233 4.02356C6.27842 4.05815 6.04494 4.12575 5.79102 4.25086Z" fill="#F8D742"/>
<path d="M4.86914 4.46499C4.91306 4.49761 4.95609 4.53445 4.99931 4.57069C5.04248 4.53441 5.08552 4.49761 5.12948 4.46499C5.08627 4.42899 5.04314 4.39355 4.99931 4.36121C4.95548 4.3936 4.91241 4.42899 4.86914 4.46499Z" fill="#F8D742"/>
<path d="M4.99931 3.95801C4.94433 3.9859 4.8893 4.01735 4.83398 4.05007C4.88902 4.07899 4.94395 4.11002 4.99931 4.14401C5.05467 4.11007 5.10966 4.07904 5.16464 4.05007C5.10933 4.0173 5.0543 3.9859 4.99931 3.95801Z" fill="#F8D742"/>
<path d="M3.64584 6.09808C3.83104 5.34175 4.18016 4.8236 4.57086 4.46716C4.51625 4.42858 4.46183 4.39319 4.40727 4.36047C4.03129 4.69108 3.69107 5.16883 3.48145 5.85714C3.52977 5.94255 3.58438 6.02247 3.64584 6.09808Z" fill="#F8D742"/>
<path d="M4.20725 4.2509C3.95333 4.12575 3.71984 4.05825 3.54589 4.02356C3.35797 4.30256 3.24805 4.63851 3.24805 5.0002C3.24805 5.1907 3.28611 5.3707 3.34241 5.5424C3.56178 4.96415 3.86998 4.54711 4.20725 4.2509Z" fill="#F8D742"/>
<path d="M4.99851 3.76148C5.37097 3.60759 5.71457 3.55293 5.95893 3.5385C5.68297 3.35681 5.35358 3.24951 4.99851 3.24951C4.64343 3.24951 4.31404 3.35686 4.03809 3.5385C4.28244 3.55293 4.62604 3.60754 4.99851 3.76148Z" fill="#F8D742"/>
<path d="M4.99943 4.84839C4.65026 5.23534 4.36207 5.7909 4.26855 6.58656C4.49159 6.68959 4.73763 6.751 4.99943 6.751C5.26127 6.751 5.50727 6.68959 5.7303 6.58656C5.63679 5.79095 5.3486 5.23534 4.99943 4.84839Z" fill="#F8D742"/>
<path d="M5.59133 4.36047C5.53681 4.39329 5.48239 4.42858 5.42773 4.46716C5.81839 4.82355 6.16756 5.34175 6.35277 6.09808C6.41422 6.02243 6.46883 5.94255 6.51716 5.85714C6.30758 5.16888 5.96731 4.69108 5.59133 4.36047Z" fill="#F8D742"/>
<path d="M6.16151 6.30032C6.00616 5.50819 5.66205 4.96228 5.26873 4.58789C5.22588 4.62328 5.18351 4.66073 5.1416 4.7003C5.5376 5.08322 5.87215 5.6393 5.98624 6.44489C6.04896 6.40195 6.10502 6.35086 6.16151 6.30032Z" fill="#F8D742"/>
<path d="M5.21191 3.86022C5.2661 3.88793 5.32024 3.91666 5.37457 3.94905C5.69899 3.80951 5.9914 3.74936 6.19338 3.72654C6.16272 3.69776 6.12879 3.67282 6.09607 3.64624C5.87843 3.66288 5.56221 3.71646 5.21191 3.86022Z" fill="#F8D742"/>
<path d="M5.29445 4.35239C5.3514 4.31597 5.40803 4.28282 5.46465 4.25161C5.41844 4.21556 5.37151 4.18453 5.32469 4.15247C5.27003 4.18256 5.21523 4.21336 5.16016 4.24847C5.2053 4.28053 5.24987 4.31658 5.29445 4.35239Z" fill="#F8D742"/>
<path d="M5.66504 4.14996C5.93565 4.0256 6.18366 3.95717 6.36816 3.92135C6.34074 3.88667 6.31379 3.8517 6.28384 3.81921C6.09587 3.84832 5.82793 3.91329 5.53027 4.04871C5.57565 4.07984 5.62027 4.11499 5.66504 4.14996Z" fill="#F8D742"/>
</svg>
