<svg width="24" height="25" viewBox="0 0 24 25" fill="none" xmlns="http://www.w3.org/2000/svg">
<path d="M21.375 12.5645C21.375 12.8628 21.2565 13.149 21.0455 13.3599C20.8345 13.5709 20.5484 13.6895 20.25 13.6895H13.125V20.8145C13.125 21.1128 13.0065 21.399 12.7955 21.6099C12.5845 21.8209 12.2984 21.9395 12 21.9395C11.7016 21.9395 11.4155 21.8209 11.2045 21.6099C10.9935 21.399 10.875 21.1128 10.875 20.8145V13.6895H3.75C3.45163 13.6895 3.16548 13.5709 2.9545 13.3599C2.74353 13.149 2.625 12.8628 2.625 12.5645C2.625 12.2661 2.74353 11.9799 2.9545 11.769C3.16548 11.558 3.45163 11.4395 3.75 11.4395H10.875V4.31445C10.875 4.01608 10.9935 3.72994 11.2045 3.51896C11.4155 3.30798 11.7016 3.18945 12 3.18945C12.2984 3.18945 12.5845 3.30798 12.7955 3.51896C13.0065 3.72994 13.125 4.01608 13.125 4.31445V11.4395H20.25C20.5484 11.4395 20.8345 11.558 21.0455 11.769C21.2565 11.9799 21.375 12.2661 21.375 12.5645Z" fill="black"/>
</svg>
