<svg width="20" height="21" viewBox="0 0 20 21" fill="none" xmlns="http://www.w3.org/2000/svg">
<path d="M11.125 15.375C11.125 15.5975 11.059 15.815 10.9354 16C10.8118 16.185 10.6361 16.3292 10.4305 16.4144C10.225 16.4995 9.99876 16.5218 9.78053 16.4784C9.5623 16.435 9.36184 16.3278 9.20451 16.1705C9.04718 16.0132 8.94003 15.8127 8.89662 15.5945C8.85321 15.3762 8.87549 15.15 8.96064 14.9445C9.04579 14.7389 9.18998 14.5632 9.37499 14.4396C9.55999 14.316 9.7775 14.25 10 14.25C10.2984 14.25 10.5845 14.3685 10.7955 14.5795C11.0065 14.7905 11.125 15.0766 11.125 15.375ZM10 5.25C7.93188 5.25 6.25 6.76406 6.25 8.625V9C6.25 9.19891 6.32902 9.38968 6.46967 9.53033C6.61033 9.67098 6.80109 9.75 7 9.75C7.19892 9.75 7.38968 9.67098 7.53033 9.53033C7.67099 9.38968 7.75 9.19891 7.75 9V8.625C7.75 7.59375 8.75969 6.75 10 6.75C11.2403 6.75 12.25 7.59375 12.25 8.625C12.25 9.65625 11.2403 10.5 10 10.5C9.80109 10.5 9.61033 10.579 9.46967 10.7197C9.32902 10.8603 9.25 11.0511 9.25 11.25V12C9.25 12.1989 9.32902 12.3897 9.46967 12.5303C9.61033 12.671 9.80109 12.75 10 12.75C10.1989 12.75 10.3897 12.671 10.5303 12.5303C10.671 12.3897 10.75 12.1989 10.75 12V11.9325C12.46 11.6184 13.75 10.2544 13.75 8.625C13.75 6.76406 12.0681 5.25 10 5.25ZM19.75 10.5C19.75 12.4284 19.1782 14.3134 18.1068 15.9168C17.0355 17.5202 15.5127 18.7699 13.7312 19.5078C11.9496 20.2458 9.98919 20.4389 8.09787 20.0627C6.20656 19.6865 4.46928 18.7579 3.10571 17.3943C1.74215 16.0307 0.813554 14.2934 0.437348 12.4021C0.061142 10.5108 0.254225 8.55042 0.992179 6.76884C1.73013 4.98726 2.97982 3.46451 4.58319 2.39317C6.18657 1.32183 8.07164 0.75 10 0.75C12.585 0.75273 15.0634 1.78084 16.8913 3.60872C18.7192 5.43661 19.7473 7.91498 19.75 10.5ZM18.25 10.5C18.25 8.8683 17.7661 7.27325 16.8596 5.91655C15.9531 4.55984 14.6646 3.50242 13.1571 2.87799C11.6497 2.25357 9.99085 2.09019 8.39051 2.40852C6.79017 2.72685 5.32016 3.51259 4.16637 4.66637C3.01259 5.82015 2.22685 7.29016 1.90853 8.8905C1.5902 10.4908 1.75358 12.1496 2.378 13.6571C3.00242 15.1646 4.05984 16.4531 5.41655 17.3596C6.77326 18.2661 8.36831 18.75 10 18.75C12.1873 18.7475 14.2843 17.8775 15.8309 16.3309C17.3775 14.7843 18.2475 12.6873 18.25 10.5Z" fill="black"/>
</svg>
