<svg width="10" height="13" viewBox="0 0 10 13" fill="none" xmlns="http://www.w3.org/2000/svg">
<path fill-rule="evenodd" clip-rule="evenodd" d="M9.4656 4.63865C9.4656 4.63865 5.66536 0.829439 5.63359 0.792787C5.47897 0.613791 5.25319 0.5 4.99944 0.5C4.73511 0.5 4.50127 0.624019 4.34665 0.816227C4.31361 0.857567 0.533288 4.63865 0.533288 4.63865C0.202446 4.9715 0.202446 5.51147 0.533288 5.84389C0.86413 6.17674 1.40085 6.17674 1.73127 5.84389L4.15222 3.40869V11.6434C4.15222 12.1164 4.53177 12.5 4.99944 12.5C5.46753 12.5 5.84667 12.1164 5.84667 11.6434V3.40869L8.26762 5.84389C8.59804 6.17674 9.13475 6.17674 9.4656 5.84389C9.79644 5.51147 9.79644 4.9715 9.4656 4.63865Z" fill="white"/>
</svg>
