<svg width="56" height="56" viewBox="0 0 56 56" fill="none" xmlns="http://www.w3.org/2000/svg">
<rect x="4" y="4" width="48" height="48" rx="24" fill="#D1FADF"/>
<rect x="4" y="4" width="48" height="48" rx="24" stroke="#ECFDF3" stroke-width="8"/>
<path d="M38 27.0801V28.0001C37.9988 30.1565 37.3005 32.2548 36.0093 33.9819C34.7182 35.7091 32.9033 36.9726 30.8354 37.584C28.7674 38.1954 26.5573 38.122 24.5345 37.3747C22.5117 36.6274 20.7847 35.2462 19.611 33.4372C18.4373 31.6281 17.8798 29.4882 18.0217 27.3364C18.1636 25.1847 18.9972 23.1364 20.3983 21.4972C21.7994 19.8579 23.6928 18.7155 25.7962 18.2403C27.8996 17.765 30.1003 17.9824 32.07 18.8601M38 20.0001L28 30.0101L25 27.0101" stroke="#13906E" stroke-width="2" stroke-linecap="round" stroke-linejoin="round"/>
</svg>
