<svg width="24" height="24" viewBox="0 0 24 24" fill="none" xmlns="http://www.w3.org/2000/svg">
<path d="M15.9239 0.0257127C15.8569 0.00782882 15.7888 0 15.7208 0H15.7185C15.5823 0 15.4473 0.034649 15.327 0.10395L15.9239 0.0257127ZM15.9239 0.0257127C16.1258 0.0793642 16.2983 0.209018 16.4016 0.386738L17.9605 3.04585C18.0649 3.22357 18.0933 3.43594 18.0388 3.63379L15.9239 0.0257127ZM15.5147 1.78503L15.4671 1.70379L15.3852 1.75034L9.29331 5.21523L9.18372 5.27756L9.26566 5.35833L10.0297 6.66305L10.0773 6.74432L10.1592 6.69776L16.2511 3.23287L16.3351 3.1851L16.2862 3.10174L15.5147 1.78503ZM16.4098 4.81627L16.3602 4.74375L16.2839 4.78715L11.5139 7.4988L11.4355 7.54334L11.4756 7.62409C11.8862 8.45216 12.3547 9.32151 12.8846 10.2243C13.4132 11.127 13.9431 11.9616 14.4664 12.7269L14.5159 12.7993L14.5922 12.7559L19.3611 10.0443L19.4395 9.99973L19.3994 9.91897C18.9877 9.08982 18.5192 8.22053 17.9905 7.31672L17.9904 7.3166C17.4606 6.4139 16.9319 5.58047 16.4098 4.81627ZM20.8572 10.9012V10.762L20.7146 10.8431L14.6227 14.3091L14.5387 14.3569L14.5876 14.4402L15.3591 15.7558L15.4067 15.837L15.4885 15.7905L21.5805 12.3256L21.6645 12.2778L21.6156 12.1944L20.8572 10.9012ZM11.2538 10.1488V10.0087L11.1113 10.0897L1.98081 15.2817C1.98081 15.2817 1.98081 15.2817 1.9808 15.2817C1.50064 15.5547 1.33528 16.1599 1.61317 16.6345C1.7992 16.9527 2.13682 17.1288 2.48293 17.1288C2.65188 17.1288 2.82487 17.0869 2.98293 16.9967L12.1133 11.8047L12.1989 11.756L12.1475 11.672C11.9912 11.4165 11.8372 11.16 11.6867 10.9024L11.6866 10.9023C11.5402 10.6529 11.396 10.4014 11.2538 10.1488ZM15.3742 0.186858L15.3746 0.186595C15.48 0.125894 15.5985 0.0953805 15.7185 0.0953805H15.7208C15.7815 0.0953805 15.8413 0.102364 15.8993 0.117862L15.8994 0.117896C16.0777 0.165254 16.2289 0.279444 16.3191 0.434653L16.3193 0.434978L17.8783 3.09409L17.8783 3.09416C17.9697 3.24981 17.9944 3.43564 17.9469 3.60847L17.9468 3.6088C17.9032 3.76944 17.8049 3.90642 17.6663 3.9978H17.5126L17.6139 4.14682C18.163 4.95434 18.6929 5.79196 19.1887 6.63844C19.6846 7.485 20.1568 8.35495 20.5914 9.22812L20.6351 9.31579L20.7216 9.26985C20.8234 9.21579 20.9362 9.18822 21.0501 9.18822C21.1098 9.18822 21.1696 9.19606 21.2286 9.21182L21.2292 9.21198C21.407 9.25823 21.5581 9.37218 21.6483 9.52838L21.6486 9.52893L23.2076 12.188L23.2076 12.1881C23.2991 12.3437 23.3238 12.5285 23.2762 12.7026L23.2761 12.7029C23.2295 12.8756 23.1133 13.0249 22.9545 13.1154C22.9545 13.1154 22.9545 13.1154 22.9545 13.1154L15.5001 17.3549L15.5 17.3549C15.3911 17.4169 15.2725 17.4463 15.1546 17.4463C14.9144 17.4463 14.6822 17.3231 14.555 17.1057L14.555 17.1056L12.9971 14.4465L12.9971 14.4465C12.8106 14.1289 12.9151 13.7237 13.2321 13.5312L13.3178 13.4792L13.2616 13.3962C13.1687 13.2589 13.0758 13.1206 12.9841 12.9823L12.9349 12.9081L12.8575 12.9521L3.67501 18.173L3.67493 18.1731C3.29956 18.387 2.88929 18.488 2.48428 18.488C1.65848 18.488 0.856812 18.0663 0.415345 17.3124L0.415326 17.3124C-0.242769 16.1897 0.146708 14.754 1.28789 14.1048C1.28789 14.1048 1.2879 14.1048 1.2879 14.1048L10.4704 8.8839L10.5497 8.8388L10.5081 8.75756C10.4956 8.73302 10.483 8.70854 10.4705 8.6841C10.4071 8.56016 10.3442 8.43735 10.2829 8.31373L10.2393 8.22593L10.1527 8.27186C10.0493 8.32672 9.93659 8.3524 9.82528 8.3524C9.58485 8.3524 9.3529 8.23008 9.22577 8.0119L9.22564 8.01168L7.66779 5.35369L7.66776 5.35363C7.47721 5.02905 7.58974 4.61398 7.92073 4.4264L7.92086 4.42633L15.3742 0.186858ZM20.7791 21.0868L20.7791 21.0868H20.7766L14.1185 21.0868H14.0232V21.0973C13.758 21.1454 13.5541 21.3701 13.5455 21.6464L13.5455 21.6479L13.533 22.4482L13.5315 22.5451H13.6284H21.2667H21.3636L21.3621 22.4482L21.3496 21.6479L21.3496 21.6465C21.3401 21.3384 21.0879 21.0948 20.7791 21.0868ZM12.1501 21.6246C12.1706 20.5906 13.012 19.751 14.0629 19.7161L14.131 19.7161L20.7652 19.715C21.8465 19.715 22.724 20.5683 22.745 21.6246V22.4497V22.5451H22.8404H23.2137C23.597 22.5451 23.9046 22.8502 23.9046 23.2243C23.9046 23.5986 23.5968 23.9046 23.2137 23.9046H11.6814C11.2983 23.9046 10.9905 23.5986 10.9905 23.2243C10.9905 22.8502 11.2981 22.5451 11.6814 22.5451H12.0547H12.1501V22.4497V21.6246Z" fill="white" stroke="white" stroke-width="0.190761"/>
</svg>
