<svg width="48" height="48" viewBox="0 0 48 48" fill="none" xmlns="http://www.w3.org/2000/svg">
<rect width="48" height="48" rx="24" fill="#FDA29B" fill-opacity="0.5"/>
<path d="M24 34C29.5228 34 34 29.5228 34 24C34 18.4772 29.5228 14 24 14C18.4772 14 14 18.4772 14 24C14 29.5228 18.4772 34 24 34Z" stroke="#F04438" stroke-width="2" stroke-linecap="round" stroke-linejoin="round"/>
<path d="M21.0898 21.0006C21.3249 20.3322 21.789 19.7687 22.3998 19.4097C23.0106 19.0507 23.7287 18.9195 24.427 19.0393C25.1253 19.1591 25.7587 19.5221 26.2149 20.0641C26.6712 20.6061 26.9209 21.2921 26.9198 22.0006C26.9198 24.0006 23.9198 25.0006 23.9198 25.0006" stroke="#F04438" stroke-width="2" stroke-linecap="round" stroke-linejoin="round"/>
<path d="M24 29H24.01" stroke="#F04438" stroke-width="2" stroke-linecap="round" stroke-linejoin="round"/>
</svg>
