<svg width="25" height="24" viewBox="0 0 25 24" fill="none" xmlns="http://www.w3.org/2000/svg">
<path fill-rule="evenodd" clip-rule="evenodd" d="M10.2002 7C10.2002 5.89543 11.0956 5 12.2002 5C13.3048 5 14.2002 5.89543 14.2002 7C14.2002 8.10457 13.3048 9 12.2002 9C11.0956 9 10.2002 8.10457 10.2002 7ZM12.2002 3C9.99106 3 8.2002 4.79086 8.2002 7C8.2002 9.20914 9.99106 11 12.2002 11C14.4093 11 16.2002 9.20914 16.2002 7C16.2002 4.79086 14.4093 3 12.2002 3ZM12.4694 14C15.3869 14 17.7951 16.1801 18.154 19H6.24635C6.60525 16.1801 9.01352 14 11.931 14H12.4694ZM11.931 12C7.66138 12 4.2002 15.4612 4.2002 19.7308C4.2002 20.4317 4.76845 21 5.46943 21H18.931C19.6319 21 20.2002 20.4317 20.2002 19.7308C20.2002 15.4612 16.739 12 12.4694 12H11.931Z" fill="#D0D5DD"/>
</svg>
