<svg width="18" height="18" viewBox="0 0 18 18" fill="none" xmlns="http://www.w3.org/2000/svg">
<path d="M3.52815 3.81862H14.4372C14.5647 3.81856 14.692 3.82665 14.8184 3.84283C14.7755 3.54207 14.6722 3.2531 14.5147 2.99335C14.3571 2.73359 14.1486 2.50843 13.9017 2.33144C13.6548 2.15445 13.3746 2.0293 13.078 1.96352C12.7814 1.89775 12.4746 1.89272 12.176 1.94874L3.20429 3.48044H3.19406C2.6309 3.58813 2.1301 3.90676 1.79395 4.37124C2.3004 4.01101 2.90665 3.81782 3.52815 3.81862Z" fill="white"/>
<path d="M2.33997 5.63001C2.65531 5.31467 3.08284 5.13727 3.52879 5.13672H14.4373C14.8832 5.13727 15.3108 5.31467 15.6261 5.63001C15.9415 5.94541 16.1189 6.37304 16.1194 6.81908V13.3634C16.1189 13.8095 15.9415 14.2371 15.6261 14.5525C15.3107 14.8679 14.8831 15.0453 14.437 15.0458H3.52904C3.083 15.0453 2.65537 14.8679 2.33997 14.5525C2.02463 14.2372 1.84723 13.8096 1.84668 13.3637V6.81883C1.84723 6.37288 2.02463 5.94535 2.33997 5.63001ZM11.9344 11.4141C12.196 11.5889 12.5036 11.6822 12.8183 11.6822C13.2402 11.6822 13.6449 11.5146 13.9432 11.2162C14.2416 10.9179 14.4092 10.5132 14.4092 10.0913C14.4092 9.77661 14.3159 9.46903 14.1411 9.2074C13.9663 8.94578 13.7178 8.74187 13.4271 8.62146C13.1364 8.50104 12.8165 8.46954 12.5079 8.53092C12.1993 8.59231 11.9158 8.74383 11.6933 8.96632C11.4708 9.18881 11.3193 9.47229 11.2579 9.78089C11.1965 10.0895 11.228 10.4094 11.3485 10.7001C11.4689 10.9908 11.6728 11.2392 11.9344 11.4141Z" stroke="white"/>
<path d="M3.28475 3.97325C3.85231 3.86682 4.42192 3.81214 4.85665 3.78427C4.78176 3.92182 4.74601 4.07423 4.74754 4.22403C4.75143 4.60507 4.98964 4.94617 5.37041 5.07835C5.36231 5.08998 5.35508 5.10004 5.34913 5.10818L5.3399 5.12059L2.88506 7.90494L1.86328 8.35376V5.72745C1.86328 5.11693 2.19651 4.17906 3.28475 3.97325ZM5.74053 5.13711C5.74052 5.13713 5.73992 5.13708 5.73878 5.13691L5.74053 5.13711Z" stroke="white"/>
</svg>
